#define bullet_width 6
#define bullet_height 11
static unsigned char bullet_bits[] = {
   0x01, 0x03, 0x06, 0x0c, 0x18, 0x30, 0x18, 0x0c, 0x06, 0x03, 0x01 };
